<svg xmlns="http://www.w3.org/2000/svg" width="18" height="18" viewBox="0 0 18 18">
  <path fill="#000000" d="M5.22,0 L12.78,0 C15.66,0 18,2.34 18,5.22 L18,12.78 C18,15.6629264 15.6629264,18 12.78,18 L5.22,18 C2.34,18 0,15.66 0,12.78 L0,5.22 C-1.99840144e-16,2.33707361 2.33707361,7.99360578e-16 5.22,0 L5.22,0 Z M5.04,1.8 C3.25059741,1.8 1.8,3.25059741 1.8,5.04 L1.8,12.96 C1.8,14.751 3.249,16.2 5.04,16.2 L12.96,16.2 C14.7494026,16.2 16.2,14.7494026 16.2,12.96 L16.2,5.04 C16.2,3.249 14.751,1.8 12.96,1.8 L5.04,1.8 L5.04,1.8 Z M13.725,3.15 C14.3463203,3.15 14.85,3.65367966 14.85,4.275 C14.85,4.89632034 14.3463203,5.4 13.725,5.4 C13.1036797,5.4 12.6,4.89632034 12.6,4.275 C12.6,3.65367966 13.1036797,3.15 13.725,3.15 L13.725,3.15 Z M9,4.5 C11.4852814,4.5 13.5,6.51471863 13.5,9 C13.5,11.4852814 11.4852814,13.5 9,13.5 C6.51471863,13.5 4.5,11.4852814 4.5,9 C4.5,6.51471863 6.51471863,4.5 9,4.5 L9,4.5 Z M9,6.3 C7.50883118,6.3 6.3,7.50883118 6.3,9 C6.3,10.4911688 7.50883118,11.7 9,11.7 C10.4911688,11.7 11.7,10.4911688 11.7,9 C11.7,7.50883118 10.4911688,6.3 9,6.3 Z"/>
</svg>
