<svg xmlns="http://www.w3.org/2000/svg" width="18" height="18" viewBox="0 0 18 18">
  <path fill="#000000" d="M16.2,0 C17.1941125,0 18,0.80588745 18,1.8 L18,16.2 C18,17.1941125 17.1941125,18 16.2,18 L1.8,18 C0.80588745,18 0,17.1941125 0,16.2 L0,1.8 C0,0.801 0.81,0 1.8,0 L16.2,0 L16.2,0 Z M16.2,9 L14.4,9 L14.4,7.2 L13.5,7.2 L13.5,9 L11.7,9 L11.7,9.9 L13.5,9.9 L13.5,11.7 L14.4,11.7 L14.4,9.9 L16.2,9.9 L16.2,9 L16.2,9 Z M6.3,8.361 L6.3,9.9 L8.874,9.9 C8.739,10.539 8.1,11.826 6.3,11.826 C4.761,11.826 3.537,10.539 3.537,9 C3.537,7.461 4.761,6.174 6.3,6.174 C7.2,6.174 7.776,6.561 8.1,6.876 L9.324,5.724 C8.55,4.95 7.524,4.5 6.3,4.5 C3.789,4.5 1.8,6.489 1.8,9 C1.8,11.511 3.789,13.5 6.3,13.5 C8.874,13.5 10.611,11.7 10.611,9.126 C10.611,8.811 10.611,8.613 10.539,8.361 L6.3,8.361 Z"/>
</svg>
