<svg xmlns="http://www.w3.org/2000/svg" width="18" height="18" viewBox="0 0 18 18">
  <path fill="#000000" d="M2,0 L16,0 C17.1045695,0 18,0.8954305 18,2 L18,16 C18,17.1045695 17.1045695,18 16,18 L2,18 C0.8954305,18 0,17.1045695 0,16 L0,2 C0,0.8954305 0.8954305,0 2,0 L2,0 Z M14.71,6.33 C15.19,5.93 15.75,5.45 16,4.92 C15.59,5.13 15.1,5.26 14.56,5.33 C15.06,4.97 15.47,4.5 15.68,3.86 C15.16,4.14 14.63,4.38 13.97,4.5 C12.42,2.63 8.71,4.15 9.37,6.95 C6.76,6.79 5.17,5.61 3.85,4.16 C3.1,5.38 3.75,7.23 4.64,7.74 C4.18,7.71 3.83,7.57 3.5,7.41 C3.54,8.95 4.39,9.69 5.58,10.09 C5.22,10.16 4.82,10.18 4.44,10.12 C4.81,11.19 5.58,11.86 6.9,12 C6,12.76 4.34,13.29 3,13.08 C4.15,13.81 5.46,14.39 7.28,14.31 C11.69,14.11 14.64,10.95 14.71,6.33 Z"/>
</svg>
