<svg xmlns="http://www.w3.org/2000/svg" width="20" height="19" viewBox="0 0 20 19">
  <g fill="none" fill-rule="evenodd">
    <path fill="#FFFFFF" d="M16.7564,6.80533333 C16.7564,6.91238095 16.6699238,6.99885714 16.5630667,6.99885714 L14.6695429,6.99885714 L14.6695429,7.73047619 L16.5630667,7.73047619 C16.6699238,7.73047619 16.7564,7.81714286 16.7564,7.92438095 L16.7564,8.62114286 C16.7564,8.728 16.6699238,8.81466667 16.5630667,8.81466667 L14.6695429,8.81466667 L14.6695429,9.54647619 L16.5630667,9.54647619 C16.6699238,9.54647619 16.7564,9.63314286 16.7564,9.74 L16.7564,10.4369524 C16.7564,10.5438095 16.6699238,10.6306667 16.5630667,10.6306667 L13.7790667,10.6306667 L13.7786857,10.6306667 C13.7268762,10.6306667 13.6798286,10.6099048 13.6449714,10.5765714 C13.644019,10.575619 13.6428762,10.5748571 13.6421143,10.5740952 C13.6413524,10.5731429 13.6404,10.572 13.6396381,10.5710476 C13.6061143,10.536381 13.5855429,10.4893333 13.5855429,10.4373333 L13.5855429,10.4369524 L13.5855429,6.10838095 L13.5855429,6.10819048 C13.5855429,6.05638095 13.6061143,6.00952381 13.6390667,5.97485714 C13.640019,5.97371429 13.6411619,5.97257143 13.6421143,5.97142857 C13.6428762,5.97066667 13.6438286,5.97009524 13.6444,5.96933333 C13.6794476,5.93561905 13.7264952,5.91466667 13.7786857,5.91466667 L13.7790667,5.91466667 L16.5630667,5.91466667 C16.6699238,5.91466667 16.7564,6.00152381 16.7564,6.10838095 L16.7564,6.80533333 Z M12.9078286,10.4373333 C12.9078286,10.544 12.8213524,10.6304762 12.7143048,10.6304762 L12.0175429,10.6304762 C12.0002095,10.6304762 11.9836381,10.6281905 11.9678286,10.6238095 C11.9668762,10.623619 11.9661143,10.6234286 11.9651619,10.6232381 C11.9605905,10.6220952 11.9565905,10.6205714 11.9518286,10.6190476 C11.9499238,10.6184762 11.9482095,10.6177143 11.9461143,10.6167619 C11.9428762,10.615619 11.9398286,10.6142857 11.9365905,10.6129524 C11.9335429,10.6114286 11.9304952,10.6099048 11.9274476,10.608381 C11.9257333,10.6074286 11.9238286,10.6064762 11.9219238,10.6053333 C11.9179238,10.6032381 11.9139238,10.6007619 11.9101143,10.5982857 C11.9095429,10.5975238 11.9085905,10.5971429 11.908019,10.5965714 C11.8895429,10.584 11.8724,10.5681905 11.8588762,10.5489524 L9.8724,7.86609524 L9.8724,10.4373333 C9.8724,10.544 9.78573333,10.6304762 9.67887619,10.6304762 L8.98192381,10.6304762 C8.87506667,10.6304762 8.7884,10.544 8.7884,10.4373333 L8.7884,6.108 C8.7884,6.00133333 8.87506667,5.91485714 8.98192381,5.91485714 L9.67887619,5.91485714 C9.68097143,5.91485714 9.68306667,5.91504762 9.68554286,5.91504762 C9.68897143,5.9152381 9.69220952,5.91542857 9.6956381,5.91580952 C9.69887619,5.916 9.70249524,5.91638095 9.70573333,5.91695238 C9.7084,5.91733333 9.71125714,5.91752381 9.71392381,5.91809524 C9.71773333,5.91885714 9.7211619,5.91961905 9.72497143,5.92057143 C9.72744762,5.92114286 9.72954286,5.92171429 9.73182857,5.92228571 C9.73582857,5.92342857 9.73944762,5.92457143 9.74325714,5.92609524 C9.74535238,5.92666667 9.74725714,5.92742857 9.74954286,5.92838095 C9.75335238,5.92971429 9.75697143,5.93142857 9.76059048,5.93295238 C9.76268571,5.93390476 9.76478095,5.93504762 9.76687619,5.936 C9.77011429,5.93771429 9.77373333,5.93980952 9.77697143,5.94171429 C9.77906667,5.94285714 9.78097143,5.944 9.78306667,5.94514286 C9.78630476,5.94742857 9.78973333,5.94971429 9.79278095,5.95219048 C9.79468571,5.95333333 9.7964,5.95466667 9.79811429,5.956 C9.80154286,5.95866667 9.80497143,5.96171429 9.80820952,5.96457143 C9.80954286,5.96571429 9.81068571,5.96685714 9.81201905,5.968 C9.81582857,5.97180952 9.81982857,5.97561905 9.8236381,5.98 C9.82382857,5.98019048 9.82420952,5.98057143 9.82478095,5.98114286 C9.83011429,5.98742857 9.83525714,5.99390476 9.83982857,6.0007619 L11.8238286,8.68019048 L11.8238286,6.108 C11.8238286,6.00133333 11.9106857,5.91485714 12.0175429,5.91485714 L12.7143048,5.91485714 C12.8213524,5.91485714 12.9078286,6.00133333 12.9078286,6.108 L12.9078286,10.4373333 Z M8.11068571,10.4373333 C8.11068571,10.544 8.02401905,10.6304762 7.91735238,10.6304762 L7.22020952,10.6304762 C7.11335238,10.6304762 7.02668571,10.544 7.02668571,10.4373333 L7.02668571,6.108 C7.02668571,6.00133333 7.11335238,5.91485714 7.22020952,5.91485714 L7.91735238,5.91485714 C8.02401905,5.91485714 8.11068571,6.00133333 8.11068571,6.108 L8.11068571,10.4373333 Z M6.43049524,10.4369524 C6.43049524,10.5438095 6.34401905,10.6306667 6.2371619,10.6306667 L3.45297143,10.6306667 L3.45259048,10.6306667 C3.40078095,10.6306667 3.35392381,10.6100952 3.31906667,10.5765714 C3.31811429,10.575619 3.3171619,10.5748571 3.31620952,10.5739048 C3.31525714,10.5729524 3.31449524,10.5718095 3.31373333,10.5710476 C3.28020952,10.5361905 3.2596381,10.4893333 3.2596381,10.4373333 L3.2596381,10.4369524 L3.2596381,6.108 C3.2596381,6.00133333 3.34630476,5.91466667 3.45297143,5.91466667 L4.14992381,5.91466667 C4.25697143,5.91466667 4.34344762,6.00133333 4.34344762,6.108 L4.34344762,9.54647619 L6.2371619,9.54647619 C6.34401905,9.54647619 6.43049524,9.63314286 6.43049524,9.74 L6.43049524,10.4369524 Z M19.872019,8.0632381 C19.872019,3.61714286 15.4148762,-2.70682947e-15 9.93601905,-2.70682947e-15 C4.45773333,-2.70682947e-15 1.9047619e-05,3.61714286 1.9047619e-05,8.0632381 C1.9047619e-05,12.0491429 3.53487619,15.3874286 8.30954286,16.0184762 C8.63335238,16.0881905 9.07373333,16.2318095 9.18497143,16.508381 C9.2851619,16.759619 9.25068571,17.1531429 9.2171619,17.4068571 C9.2171619,17.4068571 9.10078095,18.108 9.07544762,18.2575238 C9.03201905,18.5085714 8.87582857,19.24 9.93601905,18.7931429 C10.9965905,18.3460952 15.6581143,15.4238095 17.7428762,13.0241905 L17.7423048,13.0241905 C19.1823048,11.4451429 19.872019,9.84266667 19.872019,8.0632381 L19.872019,8.0632381 Z" />
  </g>
</svg>
