<svg xmlns="http://www.w3.org/2000/svg" width="20" height="20" viewBox="0 0 20 20">
  <path fill="#FFFFFF" d="M14.75,11.96 C15,12.09 15.16,12.16 15.21,12.26 C15.27,12.37 15.25,12.87 15,13.44 C14.8,14 13.76,14.54 13.3,14.56 C12.84,14.58 12.83,14.92 10.34,13.83 C7.85,12.74 6.35,10.08 6.23,9.91 C6.11,9.74 5.27,8.53 5.31,7.3 C5.36,6.08 6,5.5 6.26,5.26 C6.5,5 6.77,4.97 6.94,5 L7.41,5 C7.56,5 7.77,4.94 7.96,5.45 L8.65,7.32 C8.71,7.45 8.75,7.6 8.66,7.76 L8.39,8.17 L8,8.59 C7.88,8.71 7.74,8.84 7.88,9.09 C8,9.35 8.5,10.18 9.2,10.87 C10.11,11.75 10.91,12.04 11.15,12.17 C11.39,12.31 11.54,12.29 11.69,12.13 L12.5,11.19 C12.69,10.94 12.85,11 13.08,11.08 L14.75,11.96 L14.75,11.96 Z M10,4.4408921e-16 C12.6521649,2.22044605e-16 15.195704,1.0535684 17.0710678,2.92893219 C18.9464316,4.80429597 20,7.3478351 20,10 C20,15.5228475 15.5228475,20 10,20 C8.03,20 6.2,19.43 4.65,18.45 L0,20 L1.55,15.35 C0.57,13.8 0,11.97 0,10 C-8.8817842e-16,4.4771525 4.4771525,1.33226763e-15 10,0 L10,4.4408921e-16 Z M10,2 C5.581722,2 2,5.581722 2,10 C2,11.72 2.54,13.31 3.46,14.61 L2.5,17.5 L5.39,16.54 C6.69,17.46 8.28,18 10,18 C14.418278,18 18,14.418278 18,10 C18,5.581722 14.418278,2 10,2 Z"/>
</svg>
