<svg xmlns="http://www.w3.org/2000/svg" width="24" height="24" viewBox="0 0 24 24">
  <path fill="#000000" fill-rule="evenodd" d="M13,11 L11,11 L11,9 L13,9 C13.551,9 14,9.449 14,10 C14,10.551 13.551,11 13,11 M13,7 L11,7 L9,7 L9,13 L9,17 L11,17 L11,13 L13,13 C14.657,13 16,11.657 16,10 C16,8.343 14.657,7 13,7 M12,20 C7.589,20 4,16.411 4,12 C4,7.589 7.589,4 12,4 C16.411,4 20,7.589 20,12 C20,16.411 16.411,20 12,20 M12,2 C6.477,2 2,6.477 2,12 C2,17.523 6.477,22 12,22 C17.523,22 22,17.523 22,12 C22,6.477 17.523,2 12,2"/>
</svg>
