<svg xmlns="http://www.w3.org/2000/svg" width="175" height="32" viewBox="0 0 175 32"><g fill="none" fill-rule="evenodd"><path fill="#52BA93" d="M170.821 27.605c-.61.51-1.286.936-2.01 1.264a11.397 11.397 0 0 1-4.854 1.003c-3.035 0-5.867-.88-8-3.301a10.667 10.667 0 0 1-2.576-7.27 10.667 10.667 0 0 1 2.576-7.306c2.133-2.411 4.987-3.264 8-3.264a11.2 11.2 0 0 1 4.41.81 8.405 8.405 0 0 1 2.449 1.6V3.36a1.6 1.6 0 0 1 .592-1.285H171.466a2.261 2.261 0 0 1 1.206-.32c.428-.006.847.127 1.194.378a1.6 1.6 0 0 1 .656 1.339v24.416a1.712 1.712 0 0 1-.704 1.29 2.032 2.032 0 0 1-1.226.342 2.213 2.213 0 0 1-1.184-.432 1.6 1.6 0 0 1-.592-1.253v-.187l.005-.043zm-6.853-15.818c-2.022 0-3.883.608-5.227 2.298a8.15 8.15 0 0 0-1.6 5.216 8.085 8.085 0 0 0 1.6 5.179c1.344 1.69 3.2 2.299 5.227 2.299 1.995.1 3.919-.753 5.184-2.299a8 8 0 0 0 1.664-5.179 8.059 8.059 0 0 0-1.664-5.21 6.288 6.288 0 0 0-5.184-2.304zm-15.84-10.144a2.725 2.725 0 0 1 1.936.698c.477.447.743 1.075.73 1.728a2.224 2.224 0 0 1-.73 1.659 2.725 2.725 0 0 1-1.936.699 2.619 2.619 0 0 1-1.931-.704 2.224 2.224 0 0 1-.693-1.654 2.379 2.379 0 0 1 .682-1.712 2.613 2.613 0 0 1 1.942-.714zm-1.83 8.554a1.37 1.37 0 0 1 .63-1.21c.36-.25.789-.378 1.226-.368.429-.01.85.102 1.216.325.433.268.693.744.683 1.253V28.08c.013.511-.226.996-.64 1.296a1.936 1.936 0 0 1-1.259.427c-.44.008-.87-.123-1.232-.374h-.026a1.728 1.728 0 0 1-.571-1.306l-.027-17.926zm-8.896 14.496c.75-.03 1.483.232 2.043.731a2.41 2.41 0 0 1 .779 1.824c.006.665-.274 1.3-.768 1.744a2.821 2.821 0 0 1-2.054.773 2.875 2.875 0 0 1-2.096-.778 2.384 2.384 0 0 1-.725-1.744 2.496 2.496 0 0 1 .736-1.824 2.965 2.965 0 0 1 2.085-.726z"/><path fill="#727171" d="M63.317 27.605a8.79 8.79 0 0 1-2.01 1.264 11.397 11.397 0 0 1-4.854 1.003c-3.035 0-5.867-.88-8-3.301a10.667 10.667 0 0 1-2.587-7.27 10.667 10.667 0 0 1 2.576-7.306c2.134-2.411 4.992-3.264 8-3.264 1.512-.03 3.014.246 4.416.81a8.41 8.41 0 0 1 2.448 1.6V3.36a1.6 1.6 0 0 1 .592-1.285h.059a2.267 2.267 0 0 1 1.205-.32c.429-.006.848.127 1.195.378a1.6 1.6 0 0 1 .656 1.339v24.416a1.712 1.712 0 0 1-.704 1.29 2.032 2.032 0 0 1-1.227.342 2.224 2.224 0 0 1-1.184-.432 1.6 1.6 0 0 1-.592-1.253v-.187l.011-.043zm-6.848-15.818c-2.021 0-3.883.608-5.227 2.298a8.15 8.15 0 0 0-1.6 5.216 8.085 8.085 0 0 0 1.6 5.179c1.344 1.69 3.2 2.299 5.227 2.299 1.995.1 3.92-.753 5.184-2.299a8 8 0 0 0 1.664-5.179 8.064 8.064 0 0 0-1.664-5.21 6.288 6.288 0 0 0-5.184-2.304zm70.64-10.144c.72-.034 1.424.22 1.957.704.478.446.744 1.074.731 1.728.001.63-.264 1.23-.73 1.653a2.725 2.725 0 0 1-1.937.699 2.619 2.619 0 0 1-1.93-.704 2.224 2.224 0 0 1-.694-1.654 2.379 2.379 0 0 1 .683-1.712 2.613 2.613 0 0 1 1.92-.714zm-1.835 8.554a1.37 1.37 0 0 1 .63-1.21c.36-.25.789-.378 1.226-.368.429-.01.85.102 1.216.325.433.268.692.745.683 1.253V28.08c.013.511-.226.996-.64 1.296a1.936 1.936 0 0 1-1.259.427c-.44.008-.87-.123-1.232-.374h-.026a1.728 1.728 0 0 1-.571-1.306l-.027-17.926zm-9.226.47a7.819 7.819 0 0 1 1.568-1.067 8.41 8.41 0 0 1 3.904-.907c.922 0 1.461.608 1.504 1.6a1.45 1.45 0 0 1-1.547 1.68 7.328 7.328 0 0 0-3.488.816c-.8.41-1.47 1.032-1.941 1.798v13.466a1.6 1.6 0 0 1-.651 1.323 1.963 1.963 0 0 1-1.2.39 2.075 2.075 0 0 1-1.27-.406 1.653 1.653 0 0 1-.586-1.307V10.485c-.003-.49.242-.95.65-1.221a2.256 2.256 0 0 1 1.206-.32 2.4 2.4 0 0 1 1.173.288c.433.268.692.745.683 1.253l-.005.182zM105.6 9.264h2.976c.901 0 1.626.453 1.626 1.515a1.456 1.456 0 0 1-1.626 1.546H105.6v13.36a.837.837 0 0 0 .261.646c.3.268.697.403 1.099.373h1.536c.464-.011.919.13 1.296.4.342.282.538.703.533 1.147.001.433-.195.843-.533 1.114-.369.295-.83.448-1.302.432h-2.01a4.725 4.725 0 0 1-3.419-1.221 3.6 3.6 0 0 1-1.21-2.741v-13.51h-1.793a1.397 1.397 0 0 1-1.498-1.546 1.381 1.381 0 0 1 1.498-1.515h1.792V4.917a1.541 1.541 0 0 1 .651-1.301 2.437 2.437 0 0 1 2.432 0c.433.289.685.781.667 1.301v4.347zM94.773 15.92a2.17 2.17 0 0 1-1.253-.277 1.51 1.51 0 0 1-.784-1.2 2.448 2.448 0 0 0-1.275-1.926c-1.141-.672-2.805-.784-4.08-.784a7.637 7.637 0 0 0-3.403.678 1.867 1.867 0 0 0-1.173 1.53 2.032 2.032 0 0 0 1.035 1.792c1.216.79 3.498 1.291 4.869 1.6 2.043.384 4.832 1.067 6.55 2.384a5.2 5.2 0 0 1-.363 8.416c-1.942 1.366-4.512 1.707-6.779 1.707-2.267 0-4.8-.283-6.768-1.52a5.51 5.51 0 0 1-2.667-4.624c-.061-.499.14-.993.534-1.307.345-.264.77-.402 1.205-.389.43-.038.86.059 1.232.277.455.232.759.681.805 1.19a2.581 2.581 0 0 0 1.163 2.309c1.184.805 3.2.933 4.539.933 1.338 0 2.906-.181 4.09-.944a2.235 2.235 0 0 0 1.232-1.973 1.973 1.973 0 0 0-1.066-1.77c-1.355-.902-4.011-1.467-5.563-1.793-1.824-.378-4.144-.997-5.696-2.133a4.592 4.592 0 0 1-2.133-3.947c.004-1.761 1-3.37 2.576-4.16a11.584 11.584 0 0 1 5.866-1.333c2.224 0 4.902.283 6.827 1.6a5.147 5.147 0 0 1 2.341 3.861 1.53 1.53 0 0 1-.634 1.35 2.523 2.523 0 0 1-1.227.453zM73.552 1.643a2.725 2.725 0 0 1 1.936.698c.477.447.743 1.075.73 1.728a2.224 2.224 0 0 1-.73 1.659 2.725 2.725 0 0 1-1.936.699 2.619 2.619 0 0 1-1.931-.704 2.23 2.23 0 0 1-.693-1.654 2.379 2.379 0 0 1 .682-1.712 2.613 2.613 0 0 1 1.942-.714zm-1.835 8.554a1.37 1.37 0 0 1 .63-1.21c.36-.25.789-.378 1.226-.368.428-.01.85.102 1.216.325.433.268.693.744.683 1.253V28.08c.013.511-.227.996-.64 1.296a1.936 1.936 0 0 1-1.259.427c-.44.008-.87-.123-1.232-.374h-.027a1.728 1.728 0 0 1-.57-1.306l-.027-17.926zM16.33 0a3.808 3.808 0 0 1 2.587 6.597 4.752 4.752 0 0 0 0 6.507 3.808 3.808 0 1 1-5.381 5.381 4.752 4.752 0 0 0-6.507 0l-.208.208a4.752 4.752 0 0 0 0 6.507l.208.208a4.752 4.752 0 0 0 6.507 0 3.808 3.808 0 1 1 0 5.173 4.752 4.752 0 0 0-6.507 0 3.808 3.808 0 1 1-5.381-5.376 4.752 4.752 0 0 0 0-6.506 3.808 3.808 0 1 1 5.381-5.366 4.752 4.752 0 0 0 6.507 0l.208-.208a4.752 4.752 0 0 0 0-6.506A3.808 3.808 0 0 1 16.331 0zm.491 12.128h.086-.086zM8 28.491v.085-.085zm4.517-.694v-.085.085zm0-12.096v-.085.085z"/><path fill="#52BA93" d="M28.427 0a3.808 3.808 0 1 1 0 7.616 3.808 3.808 0 0 1 0-7.616zM25.84 18.693a4.752 4.752 0 0 1 0 6.507 3.808 3.808 0 1 0 5.173 0 4.752 4.752 0 0 1 0-6.507 3.808 3.808 0 1 0-5.173 0z"/></g></svg>