<svg xmlns="http://www.w3.org/2000/svg">
    <symbol id="icon-caret-left" viewBox="0 0 24 24">
      <path d="M15.41 16.09l-4.58-4.59 4.58-4.59L14 5.5l-6 6 6 6z"/>
    </symbol>
    <symbol id="icon-caret-right" viewBox="0 0 24 24">
      <path d="M8.59 16.34l4.58-4.59-4.58-4.59L10 5.75l6 6-6 6z"/>
    </symbol>
    <symbol id="icon-cart" viewBox="0 0 24 24">
      <path d="M7 18c-1.1 0-1.99.9-1.99 2S5.9 22 7 22s2-.9 2-2-.9-2-2-2zM1 2v2h2l3.6 7.59-1.35 2.45c-.16.28-.25.61-.25.96 0 1.1.9 2 2 2h12v-2H7.42c-.14 0-.25-.11-.25-.25l.03-.12.9-1.63h7.45c.75 0 1.41-.41 1.75-1.03l3.58-6.49A1.003 1.003 0 0 0 20 4H5.21l-.94-2H1zm16 16c-1.1 0-1.99.9-1.99 2s.89 2 1.99 2 2-.9 2-2-.9-2-2-2z"/>
    </symbol>
    <symbol id="icon-chart" viewBox="0 0 24 24">
      <path d="M17.45 15.18L22 7.31V21H2V3h2v12.54L9.5 6 16 9.78l4.24-7.33 1.73 1-5.23 9.05-6.51-3.75L4.31 19h2.26l4.39-7.56 6.49 3.74z"/>
    </symbol>
    <symbol id="icon-check-light" viewBox="0 0 24 24">
      <path d="M9 16.17L4.83 12l-1.42 1.41L9 19 21 7l-1.41-1.41z" fill="#fff"/>
    </symbol>
    <symbol id="icon-check" viewBox="0 0 24 24">
      <path d="M9 16.17L4.83 12l-1.42 1.41L9 19 21 7l-1.41-1.41z"/>
    </symbol>
    <symbol id="icon-close" viewBox="0 0 24 24">
      <path d="M19 6.41L17.59 5 12 10.59 6.41 5 5 6.41 10.59 12 5 17.59 6.41 19 12 13.41 17.59 19 19 17.59 13.41 12z"/>
    </symbol>
    <symbol id="icon-cube" viewBox="0 0 24 24">
      <path d="M21 16.5c0 .38-.21.71-.53.88l-7.9 4.44c-.16.12-.36.18-.57.18-.21 0-.41-.06-.57-.18l-7.9-4.44A.991.991 0 0 1 3 16.5v-9c0-.38.21-.71.53-.88l7.9-4.44c.16-.12.36-.18.57-.18.21 0 .41.06.57.18l7.9 4.44c.32.17.53.5.53.88v9M12 4.15L6.04 7.5 12 10.85l5.96-3.35L12 4.15z"/>
    </symbol>
    <symbol id="icon-facebook" viewBox="0 0 18 18">
      <path d="M2 0h14a2 2 0 0 1 2 2v14a2 2 0 0 1-2 2H2a2 2 0 0 1-2-2V2a2 2 0 0 1 2-2zm13 2h-2.5A3.5 3.5 0 0 0 9 5.5V8H7v3h2v7h3v-7h3V8h-3V6a1 1 0 0 1 1-1h2V2z"/>
    </symbol>
    <symbol id="icon-filter" viewBox="0 0 24 24">
      <path d="M10 18h4v-2h-4v2zM3 6v2h18V6H3zm3 7h12v-2H6v2z"/>
    </symbol>
    <symbol id="icon-googleplus" viewBox="0 0 18 18">
      <path d="M16.2 0A1.8 1.8 0 0 1 18 1.8v14.4a1.8 1.8 0 0 1-1.8 1.8H1.8A1.8 1.8 0 0 1 0 16.2V1.8C0 .801.81 0 1.8 0h14.4zm0 9h-1.8V7.2h-.9V9h-1.8v.9h1.8v1.8h.9V9.9h1.8V9zm-9.9-.639V9.9h2.574c-.135.639-.774 1.926-2.574 1.926-1.539 0-2.763-1.287-2.763-2.826 0-1.539 1.224-2.826 2.763-2.826.9 0 1.476.387 1.8.702l1.224-1.152C8.55 4.95 7.524 4.5 6.3 4.5A4.467 4.467 0 0 0 1.8 9c0 2.511 1.989 4.5 4.5 4.5 2.574 0 4.311-1.8 4.311-4.374 0-.315 0-.513-.072-.765H6.3z"/>
    </symbol>
    <symbol id="icon-hamburger" viewBox="0 0 24 24">
      <path d="M3 18h18v-2H3v2zm0-5h18v-2H3v2zm0-7v2h18V6H3z"/>
    </symbol>
    <symbol id="icon-info" viewBox="0 0 24 24">
      <path d="M11 17h2v-6h-2v6zm1-15C6.48 2 2 6.48 2 12s4.48 10 10 10 10-4.48 10-10S17.52 2 12 2zm0 18c-4.41 0-8-3.59-8-8s3.59-8 8-8 8 3.59 8 8-3.59 8-8 8zM11 9h2V7h-2v2z"/>
    </symbol>
    <symbol id="icon-instagram" viewBox="0 0 18 18">
      <path d="M5.22 0h7.56C15.66 0 18 2.34 18 5.22v7.56A5.22 5.22 0 0 1 12.78 18H5.22C2.34 18 0 15.66 0 12.78V5.22A5.22 5.22 0 0 1 5.22 0zm-.18 1.8A3.24 3.24 0 0 0 1.8 5.04v7.92a3.238 3.238 0 0 0 3.24 3.24h7.92a3.24 3.24 0 0 0 3.24-3.24V5.04a3.238 3.238 0 0 0-3.24-3.24H5.04zm8.685 1.35a1.125 1.125 0 1 1 0 2.25 1.125 1.125 0 0 1 0-2.25zM9 4.5a4.5 4.5 0 1 1 0 9 4.5 4.5 0 0 1 0-9zm0 1.8a2.7 2.7 0 1 0 0 5.4 2.7 2.7 0 0 0 0-5.4z"/>
    </symbol>
    <symbol id="icon-line" viewBox="0 0 20 19">
      <path fill="#FFF" d="M16.756 6.805a.193.193 0 0 1-.193.194H14.67v.731h1.893c.107 0 .193.087.193.194v.697a.193.193 0 0 1-.193.194H14.67v.731h1.893c.107 0 .193.087.193.194v.697a.194.194 0 0 1-.193.194H13.78a.193.193 0 0 1-.134-.054l-.003-.003-.002-.003a.192.192 0 0 1-.054-.134V6.108c0-.052.02-.098.053-.133l.003-.004s.002 0 .002-.002a.193.193 0 0 1 .135-.054h2.784c.107 0 .193.087.193.193v.697zm-3.848 3.632a.193.193 0 0 1-.194.193h-.696a.185.185 0 0 1-.05-.006h-.003l-.013-.005a.045.045 0 0 1-.006-.002l-.01-.004-.009-.005-.005-.003a.148.148 0 0 1-.012-.007l-.002-.001a.191.191 0 0 1-.05-.048L9.873 7.866v2.571a.193.193 0 0 1-.193.193h-.697a.193.193 0 0 1-.194-.193V6.108c0-.107.087-.193.194-.193h.704a.18.18 0 0 1 .02.002l.008.001a.23.23 0 0 1 .011.003l.007.001a.115.115 0 0 1 .018.006l.01.005c.003 0 .005.002.007.003a.27.27 0 0 1 .01.006l.006.003.01.007.005.004.01.009c.002 0 .003.002.004.003l.012.012v.001l.016.02 1.984 2.68V6.107c0-.107.087-.193.194-.193h.696c.107 0 .194.086.194.193v4.33zm-4.797 0a.193.193 0 0 1-.194.193H7.22a.193.193 0 0 1-.193-.193V6.108c0-.107.086-.193.193-.193h.697c.107 0 .194.086.194.193v4.33zm-1.68 0a.194.194 0 0 1-.194.194H3.453a.192.192 0 0 1-.134-.054l-.003-.003-.002-.003a.192.192 0 0 1-.054-.134V6.108c0-.107.086-.193.193-.193h.697c.107 0 .193.086.193.193v3.438h1.894c.107 0 .193.087.193.194v.697zm13.441-2.374C19.872 3.617 15.415 0 9.936 0 4.458 0 0 3.617 0 8.063c0 3.986 3.535 7.324 8.31 7.955.323.07.764.214.875.49.1.252.066.645.032.899 0 0-.116.701-.142.85-.043.252-.2.983.861.536 1.06-.447 5.722-3.37 7.807-5.769 1.44-1.579 2.129-3.181 2.129-4.96z" fill-rule="evenodd"/>
    </symbol>
    <symbol id="icon-phone" viewBox="0 0 24 24">
      <path d="M6.62 10.79c1.44 2.83 3.76 5.15 6.59 6.59l2.2-2.2c.28-.28.67-.36 1.02-.25 1.12.37 2.32.57 3.57.57a1 1 0 0 1 1 1V20a1 1 0 0 1-1 1A17 17 0 0 1 3 4a1 1 0 0 1 1-1h3.5a1 1 0 0 1 1 1c0 1.25.2 2.45.57 3.57.11.35.03.74-.25 1.02l-2.2 2.2z"/>
    </symbol>
    <symbol id="icon-point" viewBox="0 0 24 24">
      <path fill-rule="evenodd" d="M13 11h-2V9h2c.551 0 1 .449 1 1 0 .551-.449 1-1 1m0-4H9v10h2v-4h2a3 3 0 1 0 0-6m-1 13c-4.411 0-8-3.589-8-8s3.589-8 8-8 8 3.589 8 8-3.589 8-8 8m0-18C6.477 2 2 6.477 2 12s4.477 10 10 10 10-4.477 10-10S17.523 2 12 2"/>
    </symbol>
    <symbol id="icon-search" viewBox="0 0 24 24">
      <path d="M15.5 14h-.79l-.28-.27A6.471 6.471 0 0 0 16 9.5 6.5 6.5 0 1 0 9.5 16c1.61 0 3.09-.59 4.23-1.57l.27.28v.79l5 4.99L20.49 19l-4.99-5zm-6 0C7.01 14 5 11.99 5 9.5S7.01 5 9.5 5 14 7.01 14 9.5 11.99 14 9.5 14z"/>
    </symbol>
    <symbol id="icon-shipping" viewBox="0 0 24 24">
      <path d="M20 8h-3V4H3c-1.1 0-2 .9-2 2v11h2c0 1.66 1.34 3 3 3s3-1.34 3-3h6c0 1.66 1.34 3 3 3s3-1.34 3-3h2v-5l-3-4zM6 18.5c-.83 0-1.5-.67-1.5-1.5s.67-1.5 1.5-1.5 1.5.67 1.5 1.5-.67 1.5-1.5 1.5zm13.5-9l1.96 2.5H17V9.5h2.5zm-1.5 9c-.83 0-1.5-.67-1.5-1.5s.67-1.5 1.5-1.5 1.5.67 1.5 1.5-.67 1.5-1.5 1.5z"/>
    </symbol>
    <symbol id="icon-star-circle" viewBox="0 0 24 24">
      <path d="M16.23 18L12 15.45 7.77 18l1.12-4.81-3.73-3.23 4.92-.42L12 5l1.92 4.53 4.92.42-3.73 3.23L16.23 18M12 2C6.47 2 2 6.5 2 12a10 10 0 0 0 10 10 10 10 0 0 0 10-10A10 10 0 0 0 12 2z"/>
    </symbol>
    <symbol id="icon-twitter" viewBox="0 0 18 18">
      <path d="M2 0h14a2 2 0 0 1 2 2v14a2 2 0 0 1-2 2H2a2 2 0 0 1-2-2V2a2 2 0 0 1 2-2zm12.71 6.33c.48-.4 1.04-.88 1.29-1.41-.41.21-.9.34-1.44.41.5-.36.91-.83 1.12-1.47-.52.28-1.05.52-1.71.64-1.55-1.87-5.26-.35-4.6 2.45-2.61-.16-4.2-1.34-5.52-2.79-.75 1.22-.1 3.07.79 3.58-.46-.03-.81-.17-1.14-.33.04 1.54.89 2.28 2.08 2.68-.36.07-.76.09-1.14.03.37 1.07 1.14 1.74 2.46 1.88-.9.76-2.56 1.29-3.9 1.08 1.15.73 2.46 1.31 4.28 1.23 4.41-.2 7.36-3.36 7.43-7.98z"/>
    </symbol>
    <symbol id="icon-users" viewBox="0 0 24 24">
      <path d="M16 13c-.29 0-.62 0-.97.05C16.19 13.89 17 15 17 16.5V19h6v-2.5c0-2.33-4.67-3.5-7-3.5m-8 0c-2.33 0-7 1.17-7 3.5V19h14v-2.5c0-2.33-4.67-3.5-7-3.5m0-2a3 3 0 0 0 3-3 3 3 0 0 0-3-3 3 3 0 0 0-3 3 3 3 0 0 0 3 3m8 0a3 3 0 0 0 3-3 3 3 0 0 0-3-3 3 3 0 0 0-3 3 3 3 0 0 0 3 3z"/>
    </symbol>
    <symbol id="icon-whatsapp" viewBox="0 0 20 20">
      <path fill="#FFF" d="M14.75 11.96c.25.13.41.2.46.3.06.11.04.61-.21 1.18-.2.56-1.24 1.1-1.7 1.12-.46.02-.47.36-2.96-.73-2.49-1.09-3.99-3.75-4.11-3.92-.12-.17-.96-1.38-.92-2.61.05-1.22.69-1.8.95-2.04.24-.26.51-.29.68-.26h.47c.15 0 .36-.06.55.45l.69 1.87c.06.13.1.28.01.44l-.27.41-.39.42c-.12.12-.26.25-.12.5.12.26.62 1.09 1.32 1.78.91.88 1.71 1.17 1.95 1.3.24.14.39.12.54-.04l.81-.94c.19-.25.35-.19.58-.11l1.67.88zM10 0a10 10 0 0 1 10 10c0 5.523-4.477 10-10 10-1.97 0-3.8-.57-5.35-1.55L0 20l1.55-4.65A9.969 9.969 0 0 1 0 10C0 4.477 4.477 0 10 0zm0 2a8 8 0 0 0-8 8c0 1.72.54 3.31 1.46 4.61L2.5 17.5l2.89-.96A7.95 7.95 0 0 0 10 18a8 8 0 1 0 0-16z"/>
    </symbol></svg>