<svg xmlns="http://www.w3.org/2000/svg" width="175" height="32" viewBox="0 0 175 32">
  <g fill="none" fill-rule="evenodd">
    <g transform="translate(45.333 1.6)">
      <path fill="#52BA93" d="M125.488 26.0053333C124.87809 26.5157471 124.201687 26.9409661 123.477333 27.2693333 121.952682 27.9554909 120.295738 28.2978045 118.624 28.272 115.589333 28.272 112.757333 27.392 110.624 24.9706667 108.888743 22.9536473 107.96997 20.360919 108.048 17.7013333 107.960555 15.0290023 108.879918 12.4212843 110.624 10.3946667 112.757333 7.984 115.610667 7.13066667 118.624 7.13066667 120.13384 7.1007726 121.634132 7.37652157 123.034667 7.94133333 123.937893 8.32752148 124.766431 8.86904984 125.482667 9.54133333L125.482667 1.76C125.46951 1.26283296 125.688293.787817498 126.074667.474666667L126.101333.474666667 126.133333.474666667C126.497175.25713165 126.914837.146247961 127.338667.154666667 127.767229.149261057 128.186135.282039373 128.533333.533333333 128.959219.844205012 129.204602 1.3449452 129.189333 1.872L129.189333 26.288C129.160742 26.8022119 128.902185 27.276233 128.485333 27.5786667 128.123571 27.8209214 127.693564 27.9405755 127.258667 27.92 126.830474 27.8937859 126.419128 27.7437001 126.074667 27.488 125.697218 27.1818193 125.479401 26.7206742 125.482667 26.2346667L125.482667 26.048 125.488 26.0053333zM118.634667 10.1866667C116.613333 10.1866667 114.752 10.7946667 113.408 12.4853333 112.291212 13.9885248 111.726197 15.830476 111.808 17.7013333 111.729606 19.5602299 112.29471 21.3892859 113.408 22.88 114.752 24.5706667 116.608 25.1786667 118.634667 25.1786667 120.629691 25.2793644 122.55388 24.4261493 123.818667 22.88 124.961176 21.4011195 125.549894 19.5689243 125.482667 17.7013333 125.552458 15.8235635 124.963864 13.980436 123.818667 12.4906667 122.554967 10.9425257 120.630611 10.0872564 118.634667 10.1866667L118.634667 10.1866667zM102.794667.0426666667C103.506514.0135536843 104.201461.264347064 104.730667.741333333 105.208329 1.18759939 105.473941 1.81576183 105.461333 2.46933333 105.464336 3.1008883 105.198685 3.70393666 104.730667 4.128 104.201461 4.60498627 103.506514 4.85577965 102.794667 4.82666667 102.08207 4.86486837 101.384748 4.61059622 100.864 4.12266667 100.411154 3.69324402 100.15957 3.09331267 100.170667 2.46933333 100.158903 1.83011372 100.404953 1.21306872 100.853333.757333333 101.374596.262224132 102.076801.00372004466 102.794667.0426666667L102.794667.0426666667zM100.965333 8.59733333C100.94507 8.11061709 101.184657 7.64971649 101.594667 7.38666667 101.954516 7.13770937 102.383868 7.00890386 102.821333 7.01866667 103.249503 7.00805022 103.671667 7.12099772 104.037333 7.344 104.470476 7.61169735 104.730041 8.08824207 104.72 8.59733333L104.72 26.48C104.733129 26.9910393 104.493756 27.4757681 104.08 27.776 103.723933 28.0622855 103.278091 28.2134186 102.821333 28.2026667 102.381672 28.2105373 101.950671 28.0799309 101.589333 27.8293333L101.562667 27.8293333 101.562667 27.8293333C101.193237 27.496219 100.985281 27.020058 100.992 26.5226667L100.965333 8.59733333zM92.0693333 23.0933333C92.8191739 23.0630268 93.5515002 23.3249816 94.112 23.824 94.6212183 24.2921303 94.9048145 24.9564444 94.8906667 25.648 94.8969391 26.312637 94.6171913 26.9478976 94.1226667 27.392 93.5705993 27.9162646 92.8300844 28.1951598 92.0693333 28.1653333 91.2942148 28.1992639 90.5382929 27.918438 89.9733333 27.3866667 89.5017529 26.9299918 89.2393511 26.2990699 89.248 25.6426667 89.2333368 24.9595567 89.4993525 24.3003003 89.984 23.8186667 90.5598325 23.3174781 91.306771 23.0576734 92.0693333 23.0933333L92.0693333 23.0933333z"/>
      <path fill="#727171" d="M17.984 26.0053333C17.3740509 26.5156937 16.6976553 26.940908 15.9733333 27.2693333 14.4486817 27.9554909 12.7917383 28.2978045 11.12 28.272 8.08533333 28.272 5.25333333 27.392 3.12 24.9706667 1.38089159 22.9552221.45825406 20.3623253.533333333 17.7013333.4458884 15.0290023 1.36525175 12.4212843 3.10933333 10.3946667 5.24266667 7.984 8.10133333 7.13066667 11.1093333 7.13066667 12.6208906 7.10093379 14.1228935 7.37666379 15.5253333 7.94133333 16.4285072 8.32761887 17.2570295 8.86913667 17.9733333 9.54133333L17.9733333 1.76C17.9601765 1.26283296 18.1789595.787817498 18.5653333.474666667L18.592.474666667 18.624.474666667C18.9879541.257397851 19.4055383.146534778 19.8293333.154666667 20.2578958.149261057 20.6768021.282039373 21.024.533333333 21.4498858.844205012 21.6952684 1.3449452 21.68 1.872L21.68 26.288C21.6514085 26.8022119 21.3928516 27.276233 20.976 27.5786667 20.6142379 27.8209214 20.1842308 27.9405755 19.7493333 27.92 19.3212671 27.8931817 18.910087 27.7431565 18.5653333 27.488 18.1878849 27.1818193 17.9700673 26.7206742 17.9733333 26.2346667L17.9733333 26.048 17.984 26.0053333zM11.136 10.1866667C9.11466667 10.1866667 7.25333333 10.7946667 5.90933333 12.4853333 4.79254581 13.9885248 4.22753009 15.830476 4.30933333 17.7013333 4.2309389 19.5602299 4.79604372 21.3892859 5.90933333 22.88 7.25333333 24.5706667 9.10933333 25.1786667 11.136 25.1786667 13.1310248 25.2793644 15.055213 24.4261493 16.32 22.88 17.4625096 21.4011195 18.0512273 19.5689243 17.984 17.7013333 18.0533401 15.8236252 17.4647943 13.9806471 16.32 12.4906667 15.0563005 10.9425257 13.1319445 10.0872564 11.136 10.1866667L11.136 10.1866667zM81.776.0426666667C82.4958604.00932534099 83.1996245.262450314 83.7333333.746666667 84.2109956 1.19293272 84.4766075 1.82109516 84.464 2.47466667 84.4654889 3.10436589 84.1999674 3.70518095 83.7333333 4.128 83.2041275 4.60498627 82.509181 4.85577965 81.7973333 4.82666667 81.0847366 4.86486837 80.3874145 4.61059622 79.8666667 4.12266667 79.4138206 3.69324402 79.1622365 3.09331267 79.1733333 2.46933333 79.1615701 1.83011372 79.4076192 1.21306872 79.856.757333333 80.3720581.267723836 81.0654066.00964412097 81.776.0426666667zM79.9413333 8.59733333C79.9210697 8.11061709 80.1606568 7.64971649 80.5706667 7.38666667 80.9303554 7.13737544 81.3598182 7.00853662 81.7973333 7.01866667 82.2255027 7.00805022 82.6476672 7.12099772 83.0133333 7.344 83.4456713 7.61245858 83.704965 8.08850547 83.696 8.59733333L83.696 26.48C83.7091286 26.9910393 83.4697563 27.4757681 83.056 27.776 82.6999333 28.0622855 82.2540907 28.2134186 81.7973333 28.2026667 81.3576721 28.2105373 80.9266709 28.0799309 80.5653333 27.8293333L80.5386667 27.8293333 80.5386667 27.8293333C80.1692373 27.496219 79.9612813 27.020058 79.968 26.5226667L79.9413333 8.59733333zM70.7146667 9.06666667C71.1921175 8.64880695 71.7186563 8.29061729 72.2826667 8 73.4919271 7.38760381 74.8312855 7.07655064 76.1866667 7.09333333 77.1093333 7.09333333 77.648 7.70133333 77.6906667 8.69333333 77.7625402 9.13327177 77.628158 9.58182801 77.3262332 9.90978081 77.0243084 10.2377336 76.5883684 10.4086653 76.144 10.3733333 74.9317314 10.3525934 73.7332582 10.6329701 72.656 11.1893333 71.8566906 11.5996234 71.185223 12.2212843 70.7146667 12.9866667L70.7146667 26.4533333C70.72588 26.9738232 70.4831581 27.4672252 70.064 27.776 69.7177464 28.0343021 69.2959464 28.1711528 68.864 28.1653333 68.4078301 28.173468 67.9616992 28.031006 67.5946667 27.76 67.2108022 27.4361552 66.9949467 26.9553862 67.008 26.4533333L67.008 8.88533333C67.0051972 8.39458193 67.2498068 7.93543768 67.6586667 7.664 68.0223956 7.44619747 68.4401358 7.33529301 68.864 7.344 69.2732708 7.33837595 69.6771797 7.43751721 70.0373333 7.632 70.4696713 7.90045858 70.728965 8.37650547 70.72 8.88533333L70.7146667 9.06666667zM60.2666667 7.664L63.2426667 7.664C64.144 7.664 64.8693333 8.11733333 64.8693333 9.17866667 64.899488 9.61179489 64.734772 10.0357824 64.4201229 10.3349569 64.1054739 10.6341314 63.6737253 10.7772743 63.2426667 10.7253333L60.2666667 10.7253333 60.2666667 24.0853333C60.2559765 24.3281801 60.3513468 24.5636862 60.528 24.7306667 60.8282959 24.9992008 61.2249337 25.1339807 61.6266667 25.104L63.1626667 25.104C63.6266777 25.0927987 64.081683 25.2332325 64.4586667 25.504 64.8005622 25.7860093 64.9966024 26.2074956 64.992 26.6506667 64.9930917 27.0840188 64.7967917 27.4942859 64.4586667 27.7653333 64.0902424 28.059833 63.6287353 28.2130382 63.1573333 28.1973333L61.1466667 28.1973333C59.889947 28.2616607 58.6594763 27.8220698 57.728 26.976 56.9452175 26.2815976 56.5033052 25.2809679 56.5173333 24.2346667L56.5173333 10.7253333 54.7253333 10.7253333C54.3100801 10.7580666 53.901874 10.6038351 53.6120133 10.3046906 53.3221525 10.0055461 53.1808627 9.59268198 53.2266667 9.17866667 53.1851992 8.7684924 53.3291085 8.36123484 53.619072 8.06817568 53.9090354 7.77511651 54.3147418 7.62689055 54.7253333 7.664L56.5173333 7.664 56.5173333 3.31733333C56.5029635 2.80204161 56.7471447 2.31367917 57.168 2.016 57.920757 1.58266214 58.847243 1.58266214 59.6 2.016 60.0331077 2.30459291 60.2854799 2.79722355 60.2666667 3.31733333L60.2666667 7.664zM49.44 14.32C49.0038168 14.3560234 48.5669316 14.259351 48.1866667 14.0426667 47.7399486 13.8001928 47.4452736 13.3491598 47.4026667 12.8426667 47.3261507 12.0282276 46.8478867 11.3058289 46.128 10.9173333 44.9866667 10.2453333 43.3226667 10.1333333 42.048 10.1333333 40.8768353 10.0950875 39.7125754 10.3268445 38.6453333 10.8106667 38.0005192 11.0636724 37.5488215 11.6529326 37.472 12.3413333 37.4641459 13.0826923 37.8606872 13.7694854 38.5066667 14.1333333 39.7226667 14.9226667 42.0053333 15.424 43.376 15.7333333 45.4186667 16.1173333 48.208 16.8 49.9253333 18.1173333 51.2326701 19.1525256 51.9642326 20.7519024 51.8924399 22.417915 51.8206472 24.0839277 50.9542098 25.6144426 49.5626667 26.5333333 47.6213333 27.8986667 45.0506667 28.24 42.784 28.24 40.5173333 28.24 37.984 27.9573333 36.016 26.72 34.389929 25.7409333 33.3823465 23.9937852 33.3493333 22.096 33.2879212 21.5973523 33.4898658 21.102588 33.8826667 20.7893333 34.2276248 20.5246308 34.6533767 20.3871092 35.088 20.4 35.5175319 20.3618189 35.9482612 20.4587797 36.32 20.6773333 36.7746806 20.9093929 37.0786679 21.3583278 37.1253333 21.8666667 37.0716678 22.7890483 37.5150816 23.6697738 38.288 24.176 39.472 24.9813333 41.488 25.1093333 42.8266667 25.1093333 44.1653333 25.1093333 45.7333333 24.928 46.9173333 24.1653333 47.6649982 23.7900186 48.1404134 23.0285311 48.1493333 22.192 48.1560883 21.4478668 47.7436479 20.7632158 47.0826667 20.4213333 45.728 19.52 43.072 18.9546667 41.52 18.6293333 39.696 18.2506667 37.376 17.632 35.824 16.496 34.4749051 15.6409865 33.6670075 14.146376 33.6906667 12.5493333 33.695259 10.787589 34.6915998 9.17859149 36.2666667 8.38933333 38.0706661 7.43596353 40.0944785 6.97600616 42.1333333 7.056 44.3573333 7.056 47.0346667 7.33866667 48.96 8.656 50.2935838 9.51372856 51.1573642 10.9382776 51.3013333 12.5173333 51.3379726 13.0467168 51.0978128 13.5573088 50.6666667 13.8666667 50.3047355 14.1229776 49.8816293 14.2793429 49.44 14.32L49.44 14.32zM28.2186667.0426666667C28.9305143.0135536843 29.6254609.264347064 30.1546667.741333333 30.632329 1.18759939 30.8979409 1.81576183 30.8853333 2.46933333 30.8883363 3.1008883 30.6226848 3.70393666 30.1546667 4.128 29.6254609 4.60498627 28.9305143 4.85577965 28.2186667 4.82666667 27.5060699 4.86486837 26.8087478 4.61059622 26.288 4.12266667 25.8357067 3.6928624 25.5842295 3.09318588 25.5946667 2.46933333 25.5829034 1.83011372 25.8289525 1.21306872 26.2773333.757333333 26.798596.262224132 27.5008011.00372004466 28.2186667.0426666667L28.2186667.0426666667zM26.384 8.59733333C26.3637363 8.11061709 26.6033234 7.64971649 27.0133333 7.38666667 27.3731828 7.13770937 27.8025345 7.00890386 28.24 7.01866667 28.6681694 7.00805022 29.0903339 7.12099772 29.456 7.344 29.889143 7.61169735 30.1487078 8.08824207 30.1386667 8.59733333L30.1386667 26.48C30.1517953 26.9910393 29.912423 27.4757681 29.4986667 27.776 29.1426 28.0622855 28.6967573 28.2134186 28.24 28.2026667 27.8003388 28.2105373 27.3693375 28.0799309 27.008 27.8293333L26.9813333 27.8293333 26.9813333 27.8293333C26.611904 27.496219 26.4039479 27.020058 26.4106667 26.5226667L26.384 8.59733333z"/>
    </g>
    <path fill="#727171" d="M16.3306667,-2.88954109e-14 C17.8952015,0.00234937661 19.2990971,0.961405013 19.8701898,2.41798593 C20.4412826,3.87456685 20.0633472,5.53223848 18.9173333,6.59733333 C17.1996209,8.42612457 17.1996209,11.2752088 18.9173333,13.104 C19.941321,14.0520165 20.3647562,15.4841883 20.0209167,16.836616 C19.6770771,18.1890436 18.6210436,19.2450771 17.268616,19.5889167 C15.9161883,19.9327562 14.4840165,19.509321 13.536,18.4853333 C11.7072088,16.7676209 8.85812457,16.7676209 7.02933333,18.4853333 L7.02933333,18.4853333 L6.82133333,18.6933333 C5.10362089,20.5221246 5.10362089,23.3712088 6.82133333,25.2 L7.02933333,25.408 C8.85812457,27.1257124 11.7072088,27.1257124 13.536,25.408 C14.6004213,24.2579965 16.2606482,23.8774509 17.7196823,24.4490456 C19.1787164,25.0206403 20.1386412,26.4276629 20.1386412,27.9946667 C20.1386412,29.5616705 19.1787164,30.968693 17.7196823,31.5402878 C16.2606482,32.1118825 14.6004213,31.7313369 13.536,30.5813333 C11.7072088,28.8636209 8.85812457,28.8636209 7.02933333,30.5813333 C6.08652768,31.623943 4.64602493,32.0623695 3.28223569,31.7217872 C1.91844645,31.3812049 0.853196683,30.3170108 0.511262234,28.95356 C0.169327784,27.5901091 0.606325703,26.1491723 1.648,25.2053333 C3.36571244,23.3765421 3.36571244,20.5274579 1.648,18.6986667 C0.579699597,17.7613993 0.122218021,16.3072345 0.461476718,14.9271477 C0.800735415,13.547061 1.88027339,12.4707328 3.2613642,12.135585 C4.64245501,11.8004372 6.09525116,12.2622468 7.02933333,13.3333333 C8.85812457,15.0510458 11.7072088,15.0510458 13.536,13.3333333 L13.744,13.1253333 C15.4617124,11.2965421 15.4617124,8.44745791 13.744,6.61866667 C12.5818324,5.55635676 12.1933052,3.888347 12.7664381,2.42183599 C13.3395709,0.955324985 14.7561561,-0.00722184801 16.3306667,-2.88954109e-14 L16.3306667,-2.88954109e-14 Z M16.8213333,12.128 L16.9066667,12.128 L16.8213333,12.128 Z M8,28.4906667 L8,28.576 L8,28.4906667 Z M12.5173333,27.7973333 L12.5173333,27.712 C12.5173333,27.6853333 12.5173333,27.7706667 12.5173333,27.7973333 Z M12.5173333,15.7013333 L12.5173333,15.616 C12.5173333,15.5893333 12.5173333,15.6746667 12.5173333,15.7013333 Z"/>
    <path fill="#52BA93" d="M28.4266667,0 C30.529767,1.28777754e-16 32.2346667,1.70489967 32.2346667,3.808 C32.2346667,5.91110033 30.529767,7.616 28.4266667,7.616 C26.3235663,7.616 24.6186667,5.91110033 24.6186667,3.808 C24.6186667,1.70489967 26.3235663,3.86333263e-16 28.4266667,0 Z M25.84,18.6933333 C27.5577124,20.5221246 27.5577124,23.3712088 25.84,25.2 C24.6899965,26.2644213 24.3094509,27.9246482 24.8810456,29.3836823 C25.4526403,30.8427164 26.8596629,31.8026412 28.4266667,31.8026412 C29.9936705,31.8026412 31.400693,30.8427164 31.9722878,29.3836823 C32.5438825,27.9246482 32.1633369,26.2644213 31.0133333,25.2 C29.2956209,23.3712088 29.2956209,20.5221246 31.0133333,18.6933333 C32.1633369,17.628912 32.5438825,15.9686851 31.9722878,14.509651 C31.400693,13.050617 29.9936705,12.0906921 28.4266667,12.0906921 C26.8596629,12.0906921 25.4526403,13.050617 24.8810456,14.509651 C24.3094509,15.9686851 24.6899965,17.628912 25.84,18.6933333 Z"/>
  </g>
</svg>
