<svg xmlns="http://www.w3.org/2000/svg" width="20" height="19" viewBox="0 0 20 19"><path fill="#FFF" d="M16.756 6.805a.193.193 0 0 1-.193.194H14.67v.731h1.893c.107 0 .193.087.193.194v.697a.193.193 0 0 1-.193.194H14.67v.731h1.893c.107 0 .193.087.193.194v.697a.194.194 0 0 1-.193.194H13.78a.193.193 0 0 1-.134-.054l-.003-.003-.002-.003a.192.192 0 0 1-.054-.134V6.108c0-.052.02-.098.053-.133l.003-.004s.002 0 .002-.002a.193.193 0 0 1 .135-.054h2.784c.107 0 .193.087.193.193v.697zm-3.848 3.632a.193.193 0 0 1-.194.193h-.696a.185.185 0 0 1-.05-.006h-.003l-.013-.005a.045.045 0 0 1-.006-.002l-.01-.004-.009-.005-.005-.003a.148.148 0 0 1-.012-.007l-.002-.001a.191.191 0 0 1-.05-.048L9.873 7.866v2.571a.193.193 0 0 1-.193.193h-.697a.193.193 0 0 1-.194-.193V6.108c0-.107.087-.193.194-.193h.704a.18.18 0 0 1 .02.002l.008.001a.23.23 0 0 1 .011.003l.007.001a.115.115 0 0 1 .018.006l.01.005c.003 0 .005.002.007.003a.27.27 0 0 1 .01.006l.006.003.01.007.005.004.01.009c.002 0 .003.002.004.003l.012.012v.001l.016.02 1.984 2.68V6.107c0-.107.087-.193.194-.193h.696c.107 0 .194.086.194.193v4.33zm-4.797 0a.193.193 0 0 1-.194.193H7.22a.193.193 0 0 1-.193-.193V6.108c0-.107.086-.193.193-.193h.697c.107 0 .194.086.194.193v4.33zm-1.68 0a.194.194 0 0 1-.194.194H3.453a.192.192 0 0 1-.134-.054l-.003-.003-.002-.003a.192.192 0 0 1-.054-.134V6.108c0-.107.086-.193.193-.193h.697c.107 0 .193.086.193.193v3.438h1.894c.107 0 .193.087.193.194v.697zm13.441-2.374C19.872 3.617 15.415 0 9.936 0 4.458 0 0 3.617 0 8.063c0 3.986 3.535 7.324 8.31 7.955.323.07.764.214.875.49.1.252.066.645.032.899 0 0-.116.701-.142.85-.043.252-.2.983.861.536 1.06-.447 5.722-3.37 7.807-5.769 1.44-1.579 2.129-3.181 2.129-4.96z" fill-rule="evenodd"/></svg>