<svg xmlns="http://www.w3.org/2000/svg" width="18" height="18" viewBox="0 0 18 18"><path d="M16.2 0A1.8 1.8 0 0 1 18 1.8v14.4a1.8 1.8 0 0 1-1.8 1.8H1.8A1.8 1.8 0 0 1 0 16.2V1.8C0 .801.81 0 1.8 0h14.4zm0 9h-1.8V7.2h-.9V9h-1.8v.9h1.8v1.8h.9V9.9h1.8V9zm-9.9-.639V9.9h2.574c-.135.639-.774 1.926-2.574 1.926-1.539 0-2.763-1.287-2.763-2.826 0-1.539 1.224-2.826 2.763-2.826.9 0 1.476.387 1.8.702l1.224-1.152C8.55 4.95 7.524 4.5 6.3 4.5A4.467 4.467 0 0 0 1.8 9c0 2.511 1.989 4.5 4.5 4.5 2.574 0 4.311-1.8 4.311-4.374 0-.315 0-.513-.072-.765H6.3z"/></svg>