<?xml version="1.0" standalone="no"?>
<!DOCTYPE svg PUBLIC "-//W3C//DTD SVG 20010904//EN"
 "http://www.w3.org/TR/2001/REC-SVG-20010904/DTD/svg10.dtd">
<svg version="1.0" xmlns="http://www.w3.org/2000/svg"
 width="16.000000pt" height="16.000000pt" viewBox="0 0 16.000000 16.000000"
 preserveAspectRatio="xMidYMid meet">
<metadata>
Created by potrace 1.11, written by Peter Selinger 2001-2013
</metadata>
<g transform="translate(0.000000,16.000000) scale(0.006154,-0.006154)"
fill="#000000" stroke="none">
<path d="M1210 2551 c-138 -45 -222 -154 -222 -288 0 -84 21 -135 91 -221 60
-74 74 -100 91 -162 51 -187 -51 -380 -237 -450 -47 -18 -73 -21 -138 -18 -97
5 -168 34 -243 101 -85 76 -123 92 -222 92 -103 0 -159 -24 -226 -98 -56 -62
-78 -129 -72 -216 6 -78 30 -130 95 -203 25 -28 58 -77 72 -107 22 -48 26 -69
26 -151 0 -115 -23 -172 -103 -264 -66 -76 -93 -144 -88 -228 11 -169 142
-289 311 -283 75 2 133 28 205 90 87 76 147 100 255 100 50 -1 100 -4 113 -7
37 -11 116 -57 147 -86 108 -99 231 -123 351 -66 172 81 223 317 99 461 -46
54 -143 102 -210 105 -59 2 -149 -18 -166 -38 -6 -8 -18 -14 -25 -14 -8 0 -14
-3 -14 -8 0 -9 -97 -84 -130 -99 -111 -52 -261 -43 -355 20 -116 78 -176 186
-177 317 0 64 25 158 54 198 101 142 245 201 403 165 67 -16 121 -45 180 -97
70 -63 119 -81 215 -81 75 0 91 3 138 29 99 55 154 149 155 266 1 81 -20 130
-95 223 -75 94 -103 173 -95 273 6 88 44 176 102 239 21 22 49 64 63 94 67
144 0 323 -146 392 -49 22 -161 34 -202 20z"/>
<path d="M2145 2543 c-210 -75 -272 -336 -116 -492 117 -117 299 -119 416 -5
65 63 90 121 90 214 0 91 -24 149 -85 210 -80 80 -203 109 -305 73z"/>
<path d="M2148 1592 c-123 -41 -199 -144 -204 -278 -4 -84 22 -149 87 -222 23
-26 55 -76 72 -111 26 -54 30 -75 30 -145 0 -102 -26 -175 -92 -254 -81 -97
-101 -146 -97 -241 2 -43 10 -82 24 -111 121 -251 480 -223 557 43 21 74 15
149 -19 215 -14 28 -30 53 -36 57 -20 13 -87 111 -103 152 -45 113 -16 293 60
371 82 84 114 159 108 254 -5 97 -46 172 -122 228 -73 53 -181 70 -265 42z"/>
</g>
</svg>
